HIERARCHY
ROOT SpineBase
{
  OFFSET 0.000000 0.000000 0.000000
  CHANNELS 6 Xposition Yposition Zposition Zrotation Xrotation Yrotation
  JOINT SpineMid
  {
    OFFSET 0.000000 22.655905 0.000000
    CHANNELS 3 Zrotation Xrotation Yrotation
    JOINT SpineShoulder
    {
      OFFSET -0.373188 16.975872 -0.545802
      CHANNELS 3 Zrotation Xrotation Yrotation
      JOINT Neck
      {
        OFFSET -0.289854 5.679485 -0.424561
        CHANNELS 3 Zrotation Xrotation Yrotation
        JOINT Head
        {
          OFFSET -2.160919 10.278559 -2.635374
          CHANNELS 3 Zrotation Xrotation Yrotation
          End Site
          {
            OFFSET 0 0 0
          }
        }
      }
      JOINT ShoulderLeft
      {
        OFFSET -12.935448 -0.236981 -2.287539
        CHANNELS 3 Zrotation Xrotation Yrotation
        JOINT ElbowLeft
        {
          OFFSET 15.726469 -2.555954 -0.912614
          CHANNELS 3 Zrotation Xrotation Yrotation
          JOINT WristLeft
          {
            OFFSET 2.545707 -3.660020 -14.289578
            CHANNELS 3 Zrotation Xrotation Yrotation
            JOINT HandLeft
            {
              OFFSET 1.054294 -1.308130 -4.468321
              CHANNELS 3 Zrotation Xrotation Yrotation
              JOINT HandTipLeft
              {
                OFFSET 1.032681 2.361480 -0.633161
                CHANNELS 3 Zrotation Xrotation Yrotation
                End Site
                {
                  OFFSET 0 0 0
                }
              }
              JOINT ThumbLeft
              {
                OFFSET -0.269541 1.029138 1.309323
                CHANNELS 3 Zrotation Xrotation Yrotation
                End Site
                {
                  OFFSET 0 0 0
                }
              }
            }
          }
        }
      }
      JOINT ShoulderRight
      {
        OFFSET -0.021218 -3.540098 -7.218074
        CHANNELS 3 Zrotation Xrotation Yrotation
        JOINT ElbowRight
        {
          OFFSET -1.862888 18.806829 -2.251058
          CHANNELS 3 Zrotation Xrotation Yrotation
          JOINT WristRight
          {
            OFFSET -6.759794 5.775923 -8.786630
            CHANNELS 3 Zrotation Xrotation Yrotation
            JOINT HandRight
            {
              OFFSET -3.522131 3.689835 -2.900409
              CHANNELS 3 Zrotation Xrotation Yrotation
              JOINT HandTipRight
              {
                OFFSET -0.577769 2.876151 -1.388578
                CHANNELS 3 Zrotation Xrotation Yrotation
                End Site
                {
                  OFFSET 0 0 0
                }
              }
              JOINT ThumbRight
              {
                OFFSET -1.358985 -0.602465 -1.994250
                CHANNELS 3 Zrotation Xrotation Yrotation
                End Site
                {
                  OFFSET 0 0 0
                }
              }
            }
          }
        }
      }
    }
  }
  JOINT HipLeft
  {
    OFFSET -8.856232 5.106968 -2.498338
    CHANNELS 3 Zrotation Xrotation Yrotation
    JOINT KneeLeft
    {
      OFFSET 6.225338 20.105540 -13.382885
      CHANNELS 3 Zrotation Xrotation Yrotation
      JOINT AnkleLeft
      {
        OFFSET 11.814923 3.180973 -6.176844
        CHANNELS 3 Zrotation Xrotation Yrotation
        JOINT FootLeft
        {
          OFFSET -4.300891 5.951134 -10.557568
          CHANNELS 3 Zrotation Xrotation Yrotation
          End Site
          {
            OFFSET 0 0 0
          }
        }
      }
    }
  }
  JOINT HipRight
  {
    OFFSET 5.246210 -2.971123 -2.796344
    CHANNELS 3 Zrotation Xrotation Yrotation
    JOINT KneeRight
    {
      OFFSET -9.782630 -20.410071 9.783185
      CHANNELS 3 Zrotation Xrotation Yrotation
      JOINT AnkleRight
      {
        OFFSET 10.118776 28.661096 -0.538175
        CHANNELS 3 Zrotation Xrotation Yrotation
        JOINT FootRight
        {
          OFFSET -4.341534 -3.480048 -7.515374
          CHANNELS 3 Zrotation Xrotation Yrotation
          End Site
          {
            OFFSET 0 0 0
          }
        }
      }
    }
  }
}
MOTION
Frames: 10
Frame Time: 0.033333
153.179476 92.966622 315.410566 -8.148054 -0.652411 87.600098 0.318176 0.041622 -87.894835 -0.452199 0.269720 -0.358824 -4.478808 18.939152 3.755300 0.000000 0.000000 0.000000 -86.490998 12.370631 -24.067755 125.122256 -61.348714 58.454937 -10.721716 -2.551918 -4.278849 163.786727 -61.999885 20.167490 0.000000 0.000000 0.000000 0.000000 0.000000 0.000000 -167.349024 -18.695407 154.878251 50.532355 49.825043 -70.470992 12.011730 -9.287951 -18.036082 2.446428 -39.713040 56.070635 0.000000 0.000000 0.000000 0.000000 0.000000 0.000000 -149.416655 40.500107 -33.066688 47.679190 9.472577 53.425504 109.570514 -78.422355 -9.046258 0.000000 0.000000 0.000000 17.275281 -8.964576 -92.513559 -100.159869 28.315492 0.401985 94.710086 -24.835063 73.438855 0.000000 0.000000 0.000000
150.048680 93.119773 314.986605 -8.211779 -0.862278 89.697536 0.215046 -0.238152 -90.016860 -0.226128 0.238435 -0.347071 -5.596012 19.836800 3.953215 0.000000 0.000000 0.000000 -87.707087 9.572400 -20.045111 122.082318 -68.100012 52.958390 -9.959759 -1.427659 -4.220759 169.711796 -62.098673 8.353263 0.000000 0.000000 0.000000 0.000000 0.000000 0.000000 -171.846489 -19.237361 141.526007 36.240696 57.265789 -55.433823 12.435722 -7.993365 -18.070252 3.959234 -44.462274 58.677674 0.000000 0.000000 0.000000 0.000000 0.000000 0.000000 -143.879401 22.339267 -48.758814 7.482729 33.025015 60.796779 132.488892 -45.967545 5.506078 0.000000 0.000000 0.000000 17.568555 -11.177011 -93.648116 -101.305260 32.450948 2.080344 101.318551 -26.213841 77.339781 0.000000 0.000000 0.000000
147.395996 93.361128 314.525584 -7.627133 -1.119629 89.753012 0.118102 -0.028295 -90.087102 -0.275401 0.266112 -0.341036 -7.096683 19.778305 3.779489 0.000000 0.000000 0.000000 -87.776593 9.431762 -19.619063 116.034677 -69.185122 43.922555 -8.701984 -1.376925 -3.055197 -179.764780 -63.315230 -0.361989 0.000000 0.000000 0.000000 0.000000 0.000000 0.000000 -176.796280 -19.630071 127.474577 13.190466 61.053082 -31.862868 16.528632 -5.681573 -18.002431 6.982713 -38.879382 52.929675 0.000000 0.000000 0.000000 0.000000 0.000000 0.000000 -142.704082 -1.662574 -65.552190 -51.019245 45.055669 92.901648 132.565327 -19.042492 9.564374 0.000000 0.000000 0.000000 17.753076 -12.545782 -92.563019 -107.184938 37.420678 5.727759 111.518468 -25.913891 82.826236 0.000000 0.000000 0.000000
144.636083 93.657341 314.253232 -7.195710 -1.421665 89.118140 -0.010439 0.063119 -89.472859 -0.323129 0.293693 -0.338175 -7.059860 20.696656 4.089289 0.000000 0.000000 0.000000 -86.580233 9.554474 -19.722894 111.109448 -68.072318 38.569688 -5.669173 -1.621697 1.255323 -159.481677 -66.648529 -3.852778 0.000000 0.000000 0.000000 0.000000 0.000000 0.000000 178.191775 -19.357860 113.435372 -10.283838 60.212869 -7.776394 15.712463 -8.443871 -17.312117 7.726791 -26.306379 41.646609 0.000000 0.000000 0.000000 0.000000 0.000000 0.000000 -145.996154 -21.524762 -80.909683 -95.885766 35.687207 115.455096 128.344758 -3.948352 14.520262 0.000000 0.000000 0.000000 18.533462 -15.556940 -89.638944 -119.199932 44.003152 12.417092 130.723369 -23.459972 95.133755 0.000000 0.000000 0.000000
142.265708 93.872544 314.198570 -6.625636 -1.964012 89.283467 0.005163 0.026019 -89.653832 -0.300657 0.362121 -0.318360 -8.556747 22.819210 4.791482 0.000000 0.000000 0.000000 -86.358658 9.746569 -19.698527 107.213091 -66.461570 34.053808 -3.606629 -2.613007 4.785592 -159.804120 -67.125617 -10.081999 0.000000 0.000000 0.000000 0.000000 0.000000 0.000000 171.536081 -17.759942 95.237833 -33.713477 50.871545 15.984715 16.043516 -7.360531 -17.248993 10.609748 -17.732640 32.966629 0.000000 0.000000 0.000000 0.000000 0.000000 0.000000 -155.405403 -39.844670 -100.756936 -124.677691 19.676643 120.570219 123.382317 7.733881 18.284740 0.000000 0.000000 0.000000 19.234501 -18.838358 -87.276840 -134.861043 48.452716 21.572364 147.200445 -17.998750 102.704661 0.000000 0.000000 0.000000
139.423888 94.253939 313.990000 -6.159568 -2.294641 88.180191 -0.023275 0.282568 -88.557088 -0.452905 0.368407 -0.326356 -9.022346 24.339353 5.359594 0.000000 0.000000 0.000000 -84.706771 10.012912 -20.107134 105.304963 -64.358662 33.420762 -2.564232 -3.654287 6.965992 -160.113845 -67.134960 -12.886684 0.000000 0.000000 0.000000 0.000000 0.000000 0.000000 167.179542 -18.106095 86.380085 -37.901488 46.263367 21.770376 16.129306 -5.684847 -17.369435 19.258397 -9.786438 24.159407 0.000000 0.000000 0.000000 0.000000 0.000000 0.000000 -171.064209 -48.455972 -120.626083 -138.895889 9.952685 121.208302 122.677357 6.741935 21.769939 0.000000 0.000000 0.000000 20.551126 -22.268445 -83.170751 -153.779570 50.074956 32.203376 159.045068 -12.727586 104.308515 0.000000 0.000000 0.000000
136.348428 94.649952 314.091525 -6.265107 -2.778448 86.933772 0.026084 0.368878 -87.348347 -0.389038 0.464914 -0.330518 -8.924964 24.765925 5.508117 0.000000 0.000000 0.000000 -84.149953 10.267137 -20.241130 104.277281 -62.842283 32.501673 -1.495755 -4.851427 9.344853 -160.722685 -67.207382 -13.955444 0.000000 0.000000 0.000000 0.000000 0.000000 0.000000 163.370787 -17.831280 78.111299 -40.927517 42.096871 26.295391 15.194332 -3.808053 -17.726747 24.731221 -1.970008 14.437055 0.000000 0.000000 0.000000 0.000000 0.000000 0.000000 179.866892 -45.803828 -124.173157 -138.814374 11.836739 131.124653 124.285962 -4.446423 23.353305 0.000000 0.000000 0.000000 23.389061 -27.378672 -77.487984 -172.565783 46.820473 37.833688 166.701856 -11.222972 99.657240 0.000000 0.000000 0.000000
133.488809 95.026889 314.235689 -6.033697 -3.139920 86.984692 0.141298 0.297036 -87.403676 -0.400331 0.529574 -0.318217 -9.607990 24.694044 5.439891 0.000000 0.000000 0.000000 -84.219753 10.461372 -20.361512 103.643287 -61.920384 31.822738 -0.330055 -5.873217 11.835982 -165.199461 -63.375649 3.273806 0.000000 0.000000 0.000000 0.000000 0.000000 0.000000 160.471490 -17.947056 73.752639 -42.832291 42.450341 28.941000 14.895499 -1.616873 -17.909549 23.619415 -1.306860 11.661937 0.000000 0.000000 0.000000 0.000000 0.000000 0.000000 156.359981 -51.027687 -160.172280 -152.075652 -4.953421 119.136600 127.811872 -9.402722 23.900153 0.000000 0.000000 0.000000 25.065696 -31.001587 -74.206883 177.009730 42.552456 38.259087 166.748134 -12.616889 93.374582 0.000000 0.000000 0.000000
130.880846 95.264214 313.854886 -5.677538 -2.846274 87.524961 0.233176 0.383455 -87.897270 -0.448953 0.525331 -0.300760 -10.338737 24.179942 5.243384 0.000000 0.000000 0.000000 -84.462858 10.550161 -20.833256 103.773071 -61.638737 31.923144 0.725962 -6.133642 13.862904 -169.055954 -62.006624 11.805401 0.000000 0.000000 0.000000 0.000000 0.000000 0.000000 158.067772 -17.188493 69.794443 -45.893704 42.418345 31.939626 13.136868 -2.010054 -17.794864 21.585443 -2.072118 11.604970 0.000000 0.000000 0.000000 0.000000 0.000000 0.000000 143.843652 -50.585372 -178.995669 -157.221952 -15.664229 111.437923 134.271881 -11.287591 23.502830 0.000000 0.000000 0.000000 25.975913 -32.595997 -73.390680 171.644299 41.522528 39.082731 161.641078 -13.179528 90.743110 0.000000 0.000000 0.000000
128.653392 95.432193 313.291668 -5.015932 -2.186649 88.430401 0.224572 0.228530 -88.723968 -0.407527 0.425432 -0.261442 -11.379872 23.594913 4.982145 0.000000 0.000000 0.000000 -85.397794 10.436433 -21.119859 103.918969 -62.496441 31.882050 1.547506 -4.756212 14.720606 -162.076760 -61.837755 11.394591 0.000000 0.000000 0.000000 0.000000 0.000000 0.000000 155.210843 -16.386273 66.545787 -48.311899 42.026807 34.252069 12.086176 -0.557903 -17.990613 22.617846 -4.702615 12.961078 0.000000 0.000000 0.000000 0.000000 0.000000 0.000000 151.321925 -53.499408 -168.744927 -145.128376 -22.012022 113.731750 145.661321 -12.998734 20.640106 0.000000 0.000000 0.000000 24.722315 -33.816802 -73.235624 168.709947 39.650070 39.145558 151.900565 -13.498886 86.034223 0.000000 0.000000 0.000000
